<svg width="150" height="150" viewBox="0 0 150 150" fill="none" xmlns="http://www.w3.org/2000/svg">
<g clip-path="url(#clip0_7_190)">
<mask id="mask0_7_190" style="mask-type:luminance" maskUnits="userSpaceOnUse" x="0" y="0" width="150" height="150">
<path d="M150 0H0V150H150V0Z" fill="white"/>
</mask>
<g mask="url(#mask0_7_190)">
<path opacity="0.4" d="M75 149.997C116.421 149.997 150 116.419 150 74.9986C150 33.5779 116.421 0 75 0C33.5786 0 0 33.5779 0 74.9986C0 116.419 33.5786 149.997 75 149.997Z" fill="white"/>
<path d="M75 36.9791C59.475 36.9791 46.875 49.5788 46.875 65.1033C46.875 80.3279 58.8 92.7026 74.625 93.1526C74.85 93.1526 75.15 93.1526 75.3 93.1526C75.45 93.1526 75.675 93.1526 75.825 93.1526C75.9 93.1526 75.975 93.1526 75.975 93.1526C91.125 92.6277 103.05 80.3279 103.125 65.1033C103.125 49.5788 90.525 36.9791 75 36.9791Z" fill="white"/>
<path d="M125.85 130.125C112.5 142.425 94.6502 150 75.0002 150C55.35 150 37.5 142.425 24.15 130.125C25.95 123.301 30.825 117.076 37.95 112.276C58.425 98.6261 91.7252 98.6261 112.05 112.276C119.25 117.076 124.05 123.301 125.85 130.125Z" fill="white"/>
</g>
</g>
<defs>
<clipPath id="clip0_7_190">
<rect width="150" height="150" fill="white"/>
</clipPath>
</defs>
</svg>
