<svg width="512" height="512" viewBox="0 0 512 512" fill="none" xmlns="http://www.w3.org/2000/svg">
<rect width="512" height="512" fill="#1AB54E"/>
<path d="M54 86.0545C54 100.736 55.0069 104.797 59.0347 104.797C62.7267 104.797 64.0693 101.048 64.0693 90.74V76.6834H79.5089C102.668 76.6834 96.9624 69.1866 73.1317 67.9371L54 67V86.0545Z" fill="black"/>
<path d="M419.851 71.6856C419.851 74.8093 424.215 76.6835 434.284 77.3082C448.381 78.2453 448.381 78.2453 449.388 91.6772C451.066 111.669 458.45 106.671 458.45 85.7422V68.8743L439.319 67.9371C423.879 67.3124 419.851 67.9371 419.851 71.6856Z" fill="black"/>
<path d="M209.403 89.1782C188.257 94.1761 168.79 101.985 155.364 110.419C152.344 112.294 160.399 115.417 179.531 120.415C197.991 124.788 208.396 129.161 208.396 131.66C208.396 137.283 209.739 137.283 172.482 127.912L140.596 119.79L127.17 131.973C113.745 143.53 87.5643 177.891 87.5643 183.514C87.5643 186.95 117.772 199.132 122.471 197.57C124.485 196.633 128.848 188.824 132.205 180.078C135.561 170.706 140.26 164.147 142.945 164.147C149.323 164.147 149.323 163.834 141.267 182.889L134.554 198.507L146.638 193.822C163.42 187.574 169.126 187.887 188.593 196.945L205.375 205.067L219.472 196.945C227.192 192.885 232.227 189.136 230.213 189.136C228.535 188.824 222.493 185.7 217.458 181.639L208.06 174.455L228.535 131.036C239.946 107.296 250.016 86.6793 251.023 85.1174C253.372 81.369 234.576 82.9308 209.403 89.1782Z" fill="black"/>
<path d="M255.05 97.6122C251.358 106.046 241.96 125.725 234.24 141.969L220.479 171.331L231.891 180.078C243.639 189.449 260.421 192.26 262.77 185.388C263.777 182.576 273.511 182.889 301.705 186.637C354.736 193.822 352.723 195.071 352.723 156.025V123.539L309.089 103.235C285.258 91.9895 264.784 82.9308 263.777 82.9308C262.77 82.9308 258.742 89.4906 255.05 97.6122Z" fill="black"/>
<path d="M302.712 90.4277C308.418 95.4256 352.723 113.543 352.723 111.044C352.723 107.296 313.788 89.1782 306.068 89.1782C303.383 89.1782 302.04 89.803 302.712 90.4277Z" fill="black"/>
<path d="M362.792 157.899V188.512L387.294 193.509C436.633 203.505 433.948 203.505 429.921 194.134C423.879 179.14 415.824 165.709 403.069 149.778C393 137.283 386.958 133.222 376.553 130.411L362.792 127.287V157.899Z" fill="black"/>
<path d="M78.8376 203.193C77.495 207.566 77.1594 211.627 77.8307 212.252C80.1802 214.126 112.066 226.62 112.738 225.996C121.8 210.377 121.129 208.815 103.675 201.943C82.194 193.822 81.5227 193.822 78.8376 203.193Z" fill="black"/>
<path d="M292.307 195.696C293.314 196.321 299.355 201.631 306.068 207.254L318.151 217.562L323.857 209.44C327.214 204.755 329.228 200.694 328.556 200.069C327.885 199.757 319.158 198.195 309.089 196.946C299.02 195.696 291.3 195.071 292.307 195.696Z" fill="black"/>
<path d="M144.959 204.13C132.876 208.503 129.184 211.939 124.149 222.247L118.444 235.054L137.24 252.547C147.98 261.918 163.42 272.539 171.811 275.975L187.25 282.222L184.23 268.478C181.88 258.17 182.216 250.673 186.243 237.866C189.264 228.495 193.292 219.748 194.97 218.811C201.347 215.063 198.327 211.002 184.901 204.755C169.126 197.258 164.427 197.258 144.959 204.13Z" fill="black"/>
<path d="M333.255 212.252C323.522 224.746 322.85 226.933 326.542 236.304C328.556 242.239 332.92 250.673 336.612 255.358C346.01 267.853 343.325 275.662 332.92 266.291C329.228 263.168 328.556 263.48 329.899 266.916C330.906 270.352 422.872 313.459 430.592 313.771C438.647 314.396 445.025 248.799 438.983 223.497C436.633 212.564 436.298 212.252 410.453 207.254C396.356 204.755 384.273 202.568 383.602 203.193C383.266 203.505 394.342 211.314 408.104 220.373C421.865 229.432 433.277 237.553 433.277 238.178C433.277 241.302 405.419 274.101 401.727 275.35C396.021 277.224 365.141 265.979 363.463 261.293C361.785 256.296 370.847 256.92 385.616 262.855C398.034 267.541 398.034 267.541 405.754 258.794C422.201 240.365 422.536 241.302 389.308 219.124C372.19 207.566 355.072 198.507 351.044 198.507C346.345 198.507 340.304 203.193 333.255 212.252Z" fill="black"/>
<path d="M72.796 228.182C70.1109 235.054 70.4465 279.723 73.4673 286.595C75.1455 290.344 79.1732 281.91 85.5505 260.981C90.9208 243.801 94.6128 229.119 93.9416 228.495C93.2703 227.558 88.5713 226.308 83.8723 225.059C77.495 223.497 74.4742 224.434 72.796 228.182Z" fill="black"/>
<path d="M103.004 239.428C99.6475 247.862 81.1871 306.275 81.8584 306.587C82.194 306.587 89.5782 310.648 98.6406 315.333C107.367 320.019 115.758 323.142 117.101 322.205C118.444 321.581 125.492 310.335 132.876 297.216L146.302 273.476L125.492 254.109C110.724 240.365 104.011 235.992 103.004 239.428Z" fill="black"/>
<path d="M152.344 283.472C143.281 294.404 127.17 327.203 129.855 329.39C136.233 334.388 215.78 377.182 216.787 375.933C217.458 375.308 222.493 363.438 227.863 349.381L237.933 324.08L227.528 320.019C221.486 317.52 210.074 310.335 202.019 303.151L187.25 290.656L203.026 315.021C219.472 340.947 221.15 345.321 214.438 345.321C212.088 345.321 202.019 331.889 191.949 315.958C181.209 298.153 170.804 285.346 165.769 283.159C155.7 278.786 156.371 278.786 152.344 283.472Z" fill="black"/>
<path d="M322.515 285.971C319.83 290.968 319.83 293.78 323.857 299.09C329.228 306.275 395.014 334.075 400.048 330.952C401.726 330.015 403.069 325.329 403.069 320.644C403.069 312.522 400.048 310.648 367.155 296.591C347.688 288.157 330.234 280.973 328.892 280.348C327.549 279.723 324.529 282.222 322.515 285.971Z" fill="black"/>
<path d="M91.2564 336.574C105.018 361.876 139.253 394.987 165.098 407.794C176.174 413.417 186.244 416.853 187.586 415.916C188.593 414.667 192.285 406.233 195.306 396.861L201.012 379.681L165.098 359.69C145.631 348.757 118.444 334.7 105.018 328.453L80.5158 316.895L91.2564 336.574Z" fill="black"/>
<path d="M286.937 319.706C284.587 320.956 307.411 332.201 340.639 345.945L398.035 369.685L405.419 361.564C409.446 356.878 412.803 352.193 413.138 351.256C413.138 348.757 341.982 319.706 340.304 321.581C339.633 322.205 342.318 327.828 346.345 334.075C350.038 340.323 351.716 345.321 349.702 345.321C347.688 345.321 335.269 339.073 321.843 331.264C296.67 316.895 293.314 315.646 286.937 319.706Z" fill="black"/>
<path d="M411.796 327.516C409.111 339.698 416.159 345.008 422.201 335.012C427.907 325.329 427.571 321.268 420.187 319.394C415.152 318.145 413.474 320.019 411.796 327.516Z" fill="black"/>
<path d="M236.254 354.379L225.514 382.492L233.569 387.178C245.317 394.363 246.324 393.738 253.372 377.182C263.441 354.379 263.777 354.067 283.244 361.251C292.978 364.687 303.047 369.685 305.733 372.184C309.76 375.933 309.76 376.557 303.383 376.557C299.691 376.557 290.964 374.371 283.916 371.56C269.483 365.937 268.812 366.562 259.414 386.241L253.037 400.61L270.154 413.417C279.552 420.601 288.95 426.536 290.964 426.536C293.314 426.536 295.999 420.289 297.006 412.48L299.355 398.423H331.913C363.463 398.423 365.141 398.111 377.225 388.74C384.273 383.117 388.972 377.807 387.294 376.245C385.951 374.996 359.1 363.126 327.885 350.318C291.3 335.012 266.462 326.578 258.742 326.578H246.995L236.254 354.379Z" fill="black"/>
<path d="M203.361 402.172C200.676 410.918 198.327 419.352 198.327 420.289C198.327 424.038 232.227 429.66 254.379 429.66H276.196L256.393 414.667C237.933 400.298 214.773 385.929 210.745 385.929C209.403 385.929 206.382 393.113 203.361 402.172Z" fill="black"/>
<path d="M308.082 406.545C305.397 409.044 304.726 423.413 307.411 423.413C311.438 423.413 346.01 410.293 347.352 408.107C349.366 404.983 311.103 403.734 308.082 406.545Z" fill="black"/>
<path d="M56.0139 409.981C55.0069 410.918 54 419.664 54 428.723V445.591L72.4604 444.654C94.6129 443.405 98.6406 437.782 78.502 436.532C64.0693 435.595 64.0693 435.595 64.0693 423.413C64.0693 411.855 60.7129 405.92 56.0139 409.981Z" fill="black"/>
<path d="M449.388 420.914C448.381 434.346 448.381 434.346 434.284 435.283C424.215 435.908 419.851 437.782 419.851 440.906C419.851 444.654 423.879 445.279 439.319 444.654L458.45 443.717V426.849C458.45 405.92 451.066 400.922 449.388 420.914Z" fill="black"/>
</svg>
