<svg width="24" height="24" viewBox="0 0 24 24" fill="#fff" xmlns="http://www.w3.org/2000/svg">
<g clip-path="url(#clip0_3111_32676)">
<path opacity="0.4" d="M12 22.0098C17.5228 22.0098 22 17.5326 22 12.0098C22 6.48692 17.5228 2.00977 12 2.00977C6.47715 2.00977 2 6.48692 2 12.0098C2 17.5326 6.47715 22.0098 12 22.0098Z"/>
<path d="M12 6.94043C9.93 6.94043 8.25 8.62043 8.25 10.6904C8.25 12.7204 9.84 14.3704 11.95 14.4304C11.98 14.4304 12.02 14.4304 12.04 14.4304C12.06 14.4304 12.09 14.4304 12.11 14.4304C12.12 14.4304 12.13 14.4304 12.13 14.4304C14.15 14.3604 15.74 12.7204 15.75 10.6904C15.75 8.62043 14.07 6.94043 12 6.94043Z"/>
<path d="M18.78 19.3602C17 21.0002 14.62 22.0102 12 22.0102C9.37997 22.0102 6.99997 21.0002 5.21997 19.3602C5.45997 18.4502 6.10997 17.6202 7.05997 16.9802C9.78997 15.1602 14.23 15.1602 16.94 16.9802C17.9 17.6202 18.54 18.4502 18.78 19.3602Z"/>
</g>
<defs>
<clipPath id="clip0_3111_32676">
<rect width="24" height="24" fill="white"/>
</clipPath>
</defs>
</svg>