<svg width="24" height="24" viewBox="0 0 24 24" fill="#fff" xmlns="http://www.w3.org/2000/svg">
<g clip-path="url(#clip0_4418_8236)">
<path d="M7.63004 3.56969C7.80942 3.47184 8.00004 3.62237 8.00004 3.8267V17.3825C8.00004 17.6058 7.84762 17.7946 7.65024 17.8988C7.64347 17.9024 7.63673 17.906 7.63004 17.9097L5.28004 19.2497C3.64004 20.1897 2.29004 19.4097 2.29004 17.5097V7.77969C2.29004 7.14969 2.74004 6.36969 3.30004 6.04969L7.63004 3.56969Z"/>
<path d="M14.7219 6.1029C14.8922 6.18725 15 6.36089 15 6.55096V19.7041C15 20.0726 14.615 20.3145 14.283 20.1546L10.033 18.107C9.85998 18.0236 9.75 17.8485 9.75 17.6565V4.4462C9.75 4.07534 10.1396 3.83355 10.4719 3.99814L14.7219 6.1029Z"/>
<path d="M22 6.49006V16.2201C22 16.8501 21.55 17.6301 20.99 17.9501L17.4986 19.951C17.1653 20.1421 16.75 19.9014 16.75 19.5172V6.33038C16.75 6.15087 16.8462 5.98513 17.0021 5.89615L19.01 4.75006C20.65 3.81006 22 4.59006 22 6.49006Z"/>
</g>
<defs>
<clipPath id="clip0_4418_8236">
<rect width="24" height="24" fill="white"/>
</clipPath>
</defs>
</svg>