<svg width="24" height="24" viewBox="0 0 24 24" fill="#fff" xmlns="http://www.w3.org/2000/svg">
<g clip-path="url(#clip0_4418_4577)">
<path opacity="0.4" d="M8.56004 3.33984V17.6698C8.22004 17.6798 7.88004 17.7598 7.63004 17.9098L5.28004 19.2498C3.64004 20.1898 2.29004 19.4098 2.29004 17.5098V7.77984C2.29004 7.14984 2.74004 6.36984 3.30004 6.04984L7.63004 3.56984C7.88004 3.42984 8.22004 3.34984 8.56004 3.33984Z"/>
<path d="M15.7301 6.33092V20.6609C15.3801 20.6709 15.0401 20.6109 14.7701 20.4809L9.52006 17.8509C9.25006 17.7209 8.91006 17.6609 8.56006 17.6709V3.34092C8.91006 3.33092 9.25006 3.39092 9.52006 3.52092L14.7701 6.15092C15.0401 6.28092 15.3801 6.34092 15.7301 6.33092Z"/>
<path opacity="0.4" d="M22 6.49006V16.2201C22 16.8501 21.55 17.6301 20.99 17.9501L16.66 20.4301C16.41 20.5701 16.07 20.6501 15.73 20.6601V6.33006C16.07 6.32006 16.41 6.24006 16.66 6.09006L19.01 4.75006C20.65 3.81006 22 4.59006 22 6.49006Z"/>
</g>
<defs>
<clipPath id="clip0_4418_4577">
<rect width="24" height="24" fill="white"/>
</clipPath>
</defs>
</svg>